<svg width="150" height="150" viewBox="0 0 150 150" fill="none" xmlns="http://www.w3.org/2000/svg">
<path d="M148.5 1.5H1.5V148.5H148.5V1.5Z" fill="#1F1E1E" stroke="#FFB800" stroke-width="3"/>
<path d="M97.6247 51.75H78.2785L85.4202 36.5391C86.0907 34.7578 84.1628 33 81.5308 33H57.3899C55.3782 33 53.6682 34.043 53.3999 35.4375L48.0353 63.5625C47.7168 65.25 49.5944 66.75 52.0253 66.75H71.9247L64.1963 89.543C63.5928 91.3242 65.5375 93 68.1024 93C69.5106 93 70.8518 92.4844 71.5894 91.5938L101.095 55.9688C102.654 54.1055 100.726 51.75 97.6247 51.75Z" fill="#FFB800"/>
<path d="M17.56 129.1C17.3067 129.1 17.1067 129.027 16.96 128.88C16.8133 128.72 16.74 128.513 16.74 128.26V115.7C16.74 115.46 16.8133 115.267 16.96 115.12C17.12 114.973 17.3267 114.9 17.58 114.9H24.86C25.1 114.9 25.2867 114.96 25.42 115.08C25.5533 115.2 25.62 115.373 25.62 115.6C25.62 115.813 25.5533 115.98 25.42 116.1C25.2867 116.22 25.1 116.28 24.86 116.28H18.36V121.14H24.46C24.7 121.14 24.8867 121.2 25.02 121.32C25.1533 121.44 25.22 121.613 25.22 121.84C25.22 122.053 25.1533 122.22 25.02 122.34C24.8867 122.46 24.7 122.52 24.46 122.52H18.36V128.26C18.36 128.513 18.2867 128.72 18.14 128.88C18.0067 129.027 17.8133 129.1 17.56 129.1ZM32.1198 119.02C34.5598 119.02 35.7798 120.3 35.7798 122.86V128.3C35.7798 128.54 35.7065 128.733 35.5598 128.88C35.4265 129.027 35.2398 129.1 34.9998 129.1C34.7598 129.1 34.5665 129.027 34.4198 128.88C34.2732 128.733 34.1998 128.54 34.1998 128.3V127.34C33.9465 127.913 33.5598 128.36 33.0398 128.68C32.5198 128.987 31.9198 129.14 31.2398 129.14C30.6132 129.14 30.0332 129.013 29.4998 128.76C28.9798 128.507 28.5665 128.153 28.2598 127.7C27.9532 127.247 27.7998 126.747 27.7998 126.2C27.7998 125.467 27.9865 124.9 28.3598 124.5C28.7332 124.087 29.3465 123.793 30.1998 123.62C31.0532 123.433 32.2398 123.34 33.7598 123.34H34.1998V122.68C34.1998 121.88 34.0332 121.293 33.6998 120.92C33.3798 120.547 32.8532 120.36 32.1198 120.36C31.2132 120.36 30.2932 120.607 29.3598 121.1C28.9998 121.327 28.7465 121.44 28.5998 121.44C28.4398 121.44 28.3065 121.38 28.1998 121.26C28.0932 121.14 28.0398 120.987 28.0398 120.8C28.0398 120.613 28.0932 120.453 28.1998 120.32C28.3198 120.173 28.5065 120.027 28.7598 119.88C29.2265 119.613 29.7532 119.407 30.3398 119.26C30.9398 119.1 31.5332 119.02 32.1198 119.02ZM31.4598 127.86C32.2598 127.86 32.9132 127.593 33.4198 127.06C33.9398 126.513 34.1998 125.813 34.1998 124.96V124.38H33.8398C32.6665 124.38 31.7732 124.433 31.1598 124.54C30.5465 124.633 30.1065 124.8 29.8398 125.04C29.5865 125.267 29.4598 125.607 29.4598 126.06C29.4598 126.58 29.6465 127.013 30.0198 127.36C30.4065 127.693 30.8865 127.86 31.4598 127.86ZM42.8253 129.14C42.212 129.14 41.6253 129.067 41.0653 128.92C40.5186 128.773 40.032 128.567 39.6053 128.3C39.3653 128.14 39.192 127.993 39.0853 127.86C38.992 127.713 38.9453 127.54 38.9453 127.34C38.9453 127.167 38.992 127.027 39.0853 126.92C39.192 126.8 39.3253 126.74 39.4853 126.74C39.6453 126.74 39.8786 126.84 40.1853 127.04C40.5853 127.28 40.9786 127.473 41.3653 127.62C41.7653 127.753 42.2586 127.82 42.8453 127.82C43.5653 127.82 44.1253 127.693 44.5253 127.44C44.9253 127.187 45.1253 126.82 45.1253 126.34C45.1253 126.047 45.052 125.813 44.9053 125.64C44.7586 125.453 44.5053 125.293 44.1453 125.16C43.7853 125.013 43.2586 124.867 42.5653 124.72C41.392 124.467 40.552 124.127 40.0453 123.7C39.5386 123.273 39.2853 122.693 39.2853 121.96C39.2853 121.387 39.4453 120.88 39.7653 120.44C40.0853 120 40.5253 119.653 41.0853 119.4C41.6586 119.147 42.3053 119.02 43.0253 119.02C43.5453 119.02 44.0453 119.093 44.5253 119.24C45.0186 119.373 45.452 119.567 45.8253 119.82C46.2786 120.14 46.5053 120.473 46.5053 120.82C46.5053 120.993 46.452 121.14 46.3453 121.26C46.2386 121.38 46.112 121.44 45.9653 121.44C45.8053 121.44 45.5653 121.327 45.2453 121.1C44.872 120.86 44.5186 120.673 44.1853 120.54C43.852 120.407 43.4386 120.34 42.9453 120.34C42.3186 120.34 41.812 120.48 41.4253 120.76C41.052 121.04 40.8653 121.413 40.8653 121.88C40.8653 122.173 40.932 122.413 41.0653 122.6C41.212 122.773 41.4453 122.933 41.7653 123.08C42.0986 123.213 42.572 123.347 43.1853 123.48C44.092 123.68 44.792 123.9 45.2853 124.14C45.792 124.38 46.152 124.673 46.3653 125.02C46.5786 125.367 46.6853 125.807 46.6853 126.34C46.6853 127.18 46.332 127.86 45.6253 128.38C44.9186 128.887 43.9853 129.14 42.8253 129.14ZM54.357 127.82C54.8237 127.86 55.057 128.073 55.057 128.46C55.057 128.687 54.9704 128.86 54.797 128.98C54.637 129.087 54.3904 129.127 54.057 129.1L53.517 129.06C52.4504 128.98 51.6637 128.66 51.157 128.1C50.6504 127.54 50.397 126.693 50.397 125.56V120.54H49.057C48.8304 120.54 48.6504 120.487 48.517 120.38C48.397 120.26 48.337 120.107 48.337 119.92C48.337 119.72 48.397 119.56 48.517 119.44C48.6504 119.32 48.8304 119.26 49.057 119.26H50.397V117C50.397 116.747 50.4704 116.553 50.617 116.42C50.7637 116.273 50.9637 116.2 51.217 116.2C51.457 116.2 51.6504 116.273 51.797 116.42C51.9437 116.553 52.017 116.747 52.017 117V119.26H54.237C54.4504 119.26 54.617 119.32 54.737 119.44C54.8704 119.56 54.937 119.72 54.937 119.92C54.937 120.107 54.8704 120.26 54.737 120.38C54.617 120.487 54.4504 120.54 54.237 120.54H52.017V125.64C52.017 126.373 52.1637 126.907 52.457 127.24C52.7637 127.56 53.217 127.74 53.817 127.78L54.357 127.82ZM68.1502 129.16C67.1502 129.16 66.1902 129.013 65.2702 128.72C64.3635 128.413 63.6368 128.007 63.0902 127.5C62.8902 127.313 62.7902 127.08 62.7902 126.8C62.7902 126.613 62.8435 126.453 62.9502 126.32C63.0568 126.173 63.1835 126.1 63.3302 126.1C63.5035 126.1 63.6902 126.173 63.8902 126.32C65.1302 127.28 66.5435 127.76 68.1302 127.76C69.2768 127.76 70.1568 127.54 70.7702 127.1C71.3835 126.66 71.6902 126.033 71.6902 125.22C71.6902 124.753 71.5435 124.38 71.2502 124.1C70.9568 123.807 70.5702 123.573 70.0902 123.4C69.6102 123.227 68.9635 123.047 68.1502 122.86C67.0568 122.607 66.1568 122.34 65.4502 122.06C64.7568 121.78 64.1902 121.38 63.7502 120.86C63.3235 120.34 63.1102 119.66 63.1102 118.82C63.1102 118.02 63.3235 117.313 63.7502 116.7C64.1902 116.073 64.7968 115.593 65.5702 115.26C66.3568 114.913 67.2502 114.74 68.2502 114.74C69.1835 114.74 70.0502 114.887 70.8502 115.18C71.6635 115.46 72.3435 115.867 72.8902 116.4C73.1035 116.613 73.2102 116.847 73.2102 117.1C73.2102 117.287 73.1568 117.453 73.0502 117.6C72.9435 117.733 72.8168 117.8 72.6702 117.8C72.5235 117.8 72.3302 117.727 72.0902 117.58C71.4368 117.047 70.8302 116.673 70.2702 116.46C69.7102 116.247 69.0368 116.14 68.2502 116.14C67.1435 116.14 66.2835 116.373 65.6702 116.84C65.0568 117.293 64.7502 117.933 64.7502 118.76C64.7502 119.467 65.0168 120 65.5502 120.36C66.0968 120.707 66.9302 121.013 68.0502 121.28C69.2635 121.573 70.2168 121.847 70.9102 122.1C71.6035 122.34 72.1768 122.707 72.6302 123.2C73.0968 123.693 73.3302 124.353 73.3302 125.18C73.3302 125.967 73.1102 126.66 72.6702 127.26C72.2435 127.86 71.6368 128.327 70.8502 128.66C70.0635 128.993 69.1635 129.16 68.1502 129.16ZM84.0939 126.74C84.2406 126.74 84.3672 126.8 84.4739 126.92C84.5806 127.04 84.6339 127.193 84.6339 127.38C84.6339 127.713 84.4006 128.02 83.9339 128.3C83.4539 128.58 82.9472 128.793 82.4139 128.94C81.8806 129.073 81.3606 129.14 80.8539 129.14C79.3472 129.14 78.1539 128.693 77.2739 127.8C76.4072 126.907 75.9739 125.673 75.9739 124.1C75.9739 123.1 76.1672 122.22 76.5539 121.46C76.9406 120.687 77.4806 120.087 78.1739 119.66C78.8806 119.233 79.6806 119.02 80.5739 119.02C81.8406 119.02 82.8472 119.433 83.5939 120.26C84.3406 121.087 84.7139 122.207 84.7139 123.62C84.7139 123.887 84.6606 124.08 84.5539 124.2C84.4472 124.32 84.2739 124.38 84.0339 124.38H77.5939C77.7139 126.673 78.8006 127.82 80.8539 127.82C81.3739 127.82 81.8206 127.753 82.1939 127.62C82.5672 127.473 82.9672 127.28 83.3939 127.04C83.7406 126.84 83.9739 126.74 84.0939 126.74ZM80.5939 120.28C79.7406 120.28 79.0539 120.547 78.5339 121.08C78.0272 121.613 77.7272 122.367 77.6339 123.34H83.2939C83.2672 122.353 83.0206 121.6 82.5539 121.08C82.0872 120.547 81.4339 120.28 80.5939 120.28ZM92.7208 119.06C93.2808 119.02 93.5608 119.247 93.5608 119.74C93.5608 119.953 93.5008 120.127 93.3808 120.26C93.2608 120.38 93.0541 120.453 92.7608 120.48L92.1608 120.54C91.2674 120.62 90.6008 120.94 90.1608 121.5C89.7341 122.047 89.5208 122.693 89.5208 123.44V128.3C89.5208 128.567 89.4474 128.767 89.3008 128.9C89.1541 129.033 88.9608 129.1 88.7208 129.1C88.4808 129.1 88.2808 129.033 88.1208 128.9C87.9741 128.753 87.9008 128.553 87.9008 128.3V119.86C87.9008 119.607 87.9808 119.413 88.1408 119.28C88.3008 119.133 88.4941 119.06 88.7208 119.06C88.9341 119.06 89.1141 119.133 89.2608 119.28C89.4074 119.413 89.4808 119.6 89.4808 119.84V120.96C89.7608 120.373 90.1541 119.927 90.6608 119.62C91.1808 119.313 91.7741 119.133 92.4408 119.08L92.7208 119.06ZM103.377 119.56C103.524 119.24 103.757 119.08 104.077 119.08C104.277 119.08 104.457 119.147 104.617 119.28C104.777 119.413 104.857 119.58 104.857 119.78C104.857 119.9 104.83 120.007 104.777 120.1L100.877 128.5C100.797 128.673 100.677 128.813 100.517 128.92C100.357 129.013 100.184 129.06 99.997 129.06C99.8237 129.06 99.657 129.013 99.497 128.92C99.337 128.813 99.2104 128.673 99.117 128.5L95.237 120.1C95.1837 120.007 95.157 119.907 95.157 119.8C95.157 119.6 95.2437 119.427 95.417 119.28C95.6037 119.133 95.8037 119.06 96.017 119.06C96.1504 119.06 96.277 119.1 96.397 119.18C96.5304 119.26 96.6304 119.373 96.697 119.52L100.037 127.02L103.377 119.56ZM108.504 129.1C108.264 129.1 108.064 129.033 107.904 128.9C107.758 128.753 107.684 128.553 107.684 128.3V119.86C107.684 119.607 107.758 119.413 107.904 119.28C108.064 119.133 108.264 119.06 108.504 119.06C108.744 119.06 108.938 119.133 109.084 119.28C109.231 119.413 109.304 119.607 109.304 119.86V128.3C109.304 128.567 109.231 128.767 109.084 128.9C108.938 129.033 108.744 129.1 108.504 129.1ZM108.504 116.96C108.184 116.96 107.924 116.867 107.724 116.68C107.524 116.493 107.424 116.247 107.424 115.94C107.424 115.647 107.524 115.407 107.724 115.22C107.924 115.033 108.184 114.94 108.504 114.94C108.824 114.94 109.084 115.033 109.284 115.22C109.484 115.407 109.584 115.647 109.584 115.94C109.584 116.247 109.484 116.493 109.284 116.68C109.084 116.867 108.824 116.96 108.504 116.96ZM117.153 129.14C116.246 129.14 115.439 128.933 114.733 128.52C114.039 128.107 113.499 127.52 113.113 126.76C112.739 126 112.553 125.12 112.553 124.12C112.553 123.12 112.746 122.233 113.133 121.46C113.533 120.687 114.086 120.087 114.793 119.66C115.499 119.233 116.313 119.02 117.233 119.02C117.739 119.02 118.239 119.093 118.733 119.24C119.239 119.373 119.679 119.573 120.053 119.84C120.293 120 120.459 120.16 120.553 120.32C120.659 120.467 120.713 120.633 120.713 120.82C120.713 121.007 120.659 121.16 120.553 121.28C120.459 121.4 120.333 121.46 120.173 121.46C120.079 121.46 119.979 121.433 119.873 121.38C119.766 121.327 119.673 121.273 119.593 121.22C119.526 121.167 119.479 121.133 119.453 121.12C119.106 120.893 118.773 120.713 118.453 120.58C118.146 120.447 117.766 120.38 117.313 120.38C116.339 120.38 115.579 120.713 115.033 121.38C114.499 122.033 114.233 122.947 114.233 124.12C114.233 125.293 114.499 126.2 115.033 126.84C115.579 127.48 116.339 127.8 117.313 127.8C117.766 127.8 118.153 127.733 118.473 127.6C118.806 127.467 119.139 127.287 119.473 127.06C119.619 126.967 119.759 126.887 119.893 126.82C120.026 126.753 120.139 126.72 120.233 126.72C120.379 126.72 120.499 126.78 120.593 126.9C120.699 127.02 120.753 127.173 120.753 127.36C120.753 127.533 120.706 127.693 120.613 127.84C120.519 127.973 120.346 128.127 120.093 128.3C119.719 128.553 119.266 128.76 118.733 128.92C118.213 129.067 117.686 129.14 117.153 129.14ZM131.043 126.74C131.19 126.74 131.316 126.8 131.423 126.92C131.53 127.04 131.583 127.193 131.583 127.38C131.583 127.713 131.35 128.02 130.883 128.3C130.403 128.58 129.896 128.793 129.363 128.94C128.83 129.073 128.31 129.14 127.803 129.14C126.296 129.14 125.103 128.693 124.223 127.8C123.356 126.907 122.923 125.673 122.923 124.1C122.923 123.1 123.116 122.22 123.503 121.46C123.89 120.687 124.43 120.087 125.123 119.66C125.83 119.233 126.63 119.02 127.523 119.02C128.79 119.02 129.796 119.433 130.543 120.26C131.29 121.087 131.663 122.207 131.663 123.62C131.663 123.887 131.61 124.08 131.503 124.2C131.396 124.32 131.223 124.38 130.983 124.38H124.543C124.663 126.673 125.75 127.82 127.803 127.82C128.323 127.82 128.77 127.753 129.143 127.62C129.516 127.473 129.916 127.28 130.343 127.04C130.69 126.84 130.923 126.74 131.043 126.74ZM127.543 120.28C126.69 120.28 126.003 120.547 125.483 121.08C124.976 121.613 124.676 122.367 124.583 123.34H130.243C130.216 122.353 129.97 121.6 129.503 121.08C129.036 120.547 128.383 120.28 127.543 120.28Z" fill="white"/>
</svg>
