<svg width="110" height="110" viewBox="0 0 110 110" fill="none" xmlns="http://www.w3.org/2000/svg">
<rect x="1.5" y="1.5" width="107" height="107" fill="#333333" stroke="#FFB800" stroke-width="3"/>
<path d="M25 79.375C25 82.4805 27.8795 85 31.4286 85H78.5714C82.1205 85 85 82.4805 85 79.375V47.5H25V79.375ZM67.8571 56.4062C67.8571 55.6328 68.5804 55 69.4643 55H74.8214C75.7054 55 76.4286 55.6328 76.4286 56.4062V61.0938C76.4286 61.8672 75.7054 62.5 74.8214 62.5H69.4643C68.5804 62.5 67.8571 61.8672 67.8571 61.0938V56.4062ZM67.8571 71.4062C67.8571 70.6328 68.5804 70 69.4643 70H74.8214C75.7054 70 76.4286 70.6328 76.4286 71.4062V76.0938C76.4286 76.8672 75.7054 77.5 74.8214 77.5H69.4643C68.5804 77.5 67.8571 76.8672 67.8571 76.0938V71.4062ZM50.7143 56.4062C50.7143 55.6328 51.4375 55 52.3214 55H57.6786C58.5625 55 59.2857 55.6328 59.2857 56.4062V61.0938C59.2857 61.8672 58.5625 62.5 57.6786 62.5H52.3214C51.4375 62.5 50.7143 61.8672 50.7143 61.0938V56.4062ZM50.7143 71.4062C50.7143 70.6328 51.4375 70 52.3214 70H57.6786C58.5625 70 59.2857 70.6328 59.2857 71.4062V76.0938C59.2857 76.8672 58.5625 77.5 57.6786 77.5H52.3214C51.4375 77.5 50.7143 76.8672 50.7143 76.0938V71.4062ZM33.5714 56.4062C33.5714 55.6328 34.2946 55 35.1786 55H40.5357C41.4196 55 42.1429 55.6328 42.1429 56.4062V61.0938C42.1429 61.8672 41.4196 62.5 40.5357 62.5H35.1786C34.2946 62.5 33.5714 61.8672 33.5714 61.0938V56.4062ZM33.5714 71.4062C33.5714 70.6328 34.2946 70 35.1786 70H40.5357C41.4196 70 42.1429 70.6328 42.1429 71.4062V76.0938C42.1429 76.8672 41.4196 77.5 40.5357 77.5H35.1786C34.2946 77.5 33.5714 76.8672 33.5714 76.0938V71.4062ZM78.5714 32.5H72.1429V26.875C72.1429 25.8438 71.1786 25 70 25H65.7143C64.5357 25 63.5714 25.8438 63.5714 26.875V32.5H46.4286V26.875C46.4286 25.8438 45.4643 25 44.2857 25H40C38.8214 25 37.8571 25.8438 37.8571 26.875V32.5H31.4286C27.8795 32.5 25 35.0195 25 38.125V43.75H85V38.125C85 35.0195 82.1205 32.5 78.5714 32.5Z" fill="#FFB800"/>
</svg>
