<svg width="150" height="150" viewBox="0 0 150 150" fill="none" xmlns="http://www.w3.org/2000/svg">
<path d="M148.5 1.5H1.5V148.5H148.5V1.5Z" fill="#1F1E1E" stroke="#FFB800" stroke-width="3"/>
<path d="M36.88 127.06C36.9333 127.167 36.96 127.28 36.96 127.4C36.96 127.6 36.88 127.767 36.72 127.9C36.5733 128.033 36.3933 128.1 36.18 128.1C35.8467 128.1 35.6133 127.94 35.48 127.62L34.06 124.38H26.52L25.08 127.62C24.9467 127.94 24.7133 128.1 24.38 128.1C24.1667 128.1 23.98 128.033 23.82 127.9C23.66 127.753 23.58 127.58 23.58 127.38C23.58 127.273 23.6067 127.167 23.66 127.06L29.38 114.34C29.46 114.153 29.58 114.013 29.74 113.92C29.9 113.827 30.0733 113.78 30.26 113.78C30.46 113.78 30.64 113.833 30.8 113.94C30.96 114.033 31.08 114.167 31.16 114.34L36.88 127.06ZM27.12 123.02H33.46L30.28 115.84L27.12 123.02ZM44.0141 115.18C43.3074 115.233 42.7741 115.46 42.4141 115.86C42.0541 116.247 41.8741 116.833 41.8741 117.62V118.26H44.0941C44.3207 118.26 44.4941 118.32 44.6141 118.44C44.7341 118.56 44.7941 118.72 44.7941 118.92C44.7941 119.12 44.7341 119.273 44.6141 119.38C44.4941 119.487 44.3207 119.54 44.0941 119.54H41.8741V127.3C41.8741 127.553 41.7941 127.753 41.6341 127.9C41.4874 128.033 41.3007 128.1 41.0741 128.1C40.8341 128.1 40.6341 128.033 40.4741 127.9C40.3274 127.753 40.2541 127.553 40.2541 127.3V119.54H38.9141C38.6874 119.54 38.5074 119.487 38.3741 119.38C38.2541 119.26 38.1941 119.107 38.1941 118.92C38.1941 118.72 38.2541 118.56 38.3741 118.44C38.5074 118.32 38.6874 118.26 38.9141 118.26H40.2541V117.9C40.2541 116.7 40.5541 115.76 41.1541 115.08C41.7541 114.387 42.6141 114 43.7341 113.92L44.2541 113.88C44.6007 113.853 44.8474 113.887 44.9941 113.98C45.1541 114.073 45.2341 114.24 45.2341 114.48C45.2341 114.867 45.0007 115.087 44.5341 115.14L44.0141 115.18ZM51.3766 115.18C50.6699 115.233 50.1366 115.46 49.7766 115.86C49.4166 116.247 49.2366 116.833 49.2366 117.62V118.26H51.4566C51.6832 118.26 51.8566 118.32 51.9766 118.44C52.0966 118.56 52.1566 118.72 52.1566 118.92C52.1566 119.12 52.0966 119.273 51.9766 119.38C51.8566 119.487 51.6832 119.54 51.4566 119.54H49.2366V127.3C49.2366 127.553 49.1566 127.753 48.9966 127.9C48.8499 128.033 48.6632 128.1 48.4366 128.1C48.1966 128.1 47.9966 128.033 47.8366 127.9C47.6899 127.753 47.6166 127.553 47.6166 127.3V119.54H46.2766C46.0499 119.54 45.8699 119.487 45.7366 119.38C45.6166 119.26 45.5566 119.107 45.5566 118.92C45.5566 118.72 45.6166 118.56 45.7366 118.44C45.8699 118.32 46.0499 118.26 46.2766 118.26H47.6166V117.9C47.6166 116.7 47.9166 115.76 48.5166 115.08C49.1166 114.387 49.9766 114 51.0966 113.92L51.6166 113.88C51.9632 113.853 52.2099 113.887 52.3566 113.98C52.5166 114.073 52.5966 114.24 52.5966 114.48C52.5966 114.867 52.3632 115.087 51.8966 115.14L51.3766 115.18ZM58.3814 128.14C57.4614 128.14 56.6481 127.933 55.9414 127.52C55.2481 127.107 54.7081 126.52 54.3214 125.76C53.9481 124.987 53.7614 124.093 53.7614 123.08C53.7614 122.067 53.9481 121.18 54.3214 120.42C54.7081 119.647 55.2481 119.053 55.9414 118.64C56.6481 118.227 57.4614 118.02 58.3814 118.02C59.3014 118.02 60.1147 118.227 60.8214 118.64C61.5281 119.053 62.0681 119.647 62.4414 120.42C62.8281 121.18 63.0214 122.067 63.0214 123.08C63.0214 124.093 62.8281 124.987 62.4414 125.76C62.0681 126.52 61.5281 127.107 60.8214 127.52C60.1147 127.933 59.3014 128.14 58.3814 128.14ZM58.3814 126.8C59.3414 126.8 60.0747 126.487 60.5814 125.86C61.1014 125.22 61.3614 124.293 61.3614 123.08C61.3614 121.893 61.1014 120.98 60.5814 120.34C60.0614 119.687 59.3281 119.36 58.3814 119.36C57.4347 119.36 56.7014 119.687 56.1814 120.34C55.6614 120.98 55.4014 121.893 55.4014 123.08C55.4014 124.28 55.6547 125.2 56.1614 125.84C56.6814 126.48 57.4214 126.8 58.3814 126.8ZM71.0552 118.06C71.6152 118.02 71.8952 118.247 71.8952 118.74C71.8952 118.953 71.8352 119.127 71.7152 119.26C71.5952 119.38 71.3885 119.453 71.0952 119.48L70.4952 119.54C69.6018 119.62 68.9352 119.94 68.4952 120.5C68.0685 121.047 67.8552 121.693 67.8552 122.44V127.3C67.8552 127.567 67.7818 127.767 67.6352 127.9C67.4885 128.033 67.2952 128.1 67.0552 128.1C66.8152 128.1 66.6152 128.033 66.4552 127.9C66.3085 127.753 66.2352 127.553 66.2352 127.3V118.86C66.2352 118.607 66.3152 118.413 66.4752 118.28C66.6352 118.133 66.8285 118.06 67.0552 118.06C67.2685 118.06 67.4485 118.133 67.5952 118.28C67.7418 118.413 67.8152 118.6 67.8152 118.84V119.96C68.0952 119.373 68.4885 118.927 68.9952 118.62C69.5152 118.313 70.1085 118.133 70.7752 118.08L71.0552 118.06ZM81.7106 113.8C81.964 113.8 82.164 113.873 82.3106 114.02C82.4573 114.167 82.5306 114.353 82.5306 114.58V127.3C82.5306 127.54 82.4573 127.733 82.3106 127.88C82.164 128.027 81.964 128.1 81.7106 128.1C81.4573 128.1 81.2573 128.027 81.1106 127.88C80.9773 127.733 80.9106 127.54 80.9106 127.3V126.22C80.6173 126.833 80.184 127.307 79.6106 127.64C79.0506 127.973 78.3906 128.14 77.6306 128.14C76.7773 128.14 76.024 127.927 75.3706 127.5C74.7173 127.073 74.2106 126.48 73.8506 125.72C73.4906 124.947 73.3106 124.053 73.3106 123.04C73.3106 122.04 73.4906 121.16 73.8506 120.4C74.2106 119.64 74.7173 119.053 75.3706 118.64C76.024 118.227 76.7773 118.02 77.6306 118.02C78.3906 118.02 79.0506 118.187 79.6106 118.52C80.184 118.853 80.6173 119.327 80.9106 119.94V114.58C80.9106 114.34 80.9773 114.153 81.1106 114.02C81.2573 113.873 81.4573 113.8 81.7106 113.8ZM77.9506 126.8C78.8973 126.8 79.624 126.48 80.1306 125.84C80.6506 125.187 80.9106 124.267 80.9106 123.08C80.9106 121.893 80.6506 120.98 80.1306 120.34C79.624 119.7 78.8973 119.38 77.9506 119.38C77.004 119.38 76.264 119.7 75.7306 120.34C75.2106 120.98 74.9506 121.88 74.9506 123.04C74.9506 124.227 75.2106 125.153 75.7306 125.82C76.264 126.473 77.004 126.8 77.9506 126.8ZM90.3112 118.02C92.7512 118.02 93.9712 119.3 93.9712 121.86V127.3C93.9712 127.54 93.8979 127.733 93.7512 127.88C93.6179 128.027 93.4312 128.1 93.1912 128.1C92.9512 128.1 92.7579 128.027 92.6112 127.88C92.4646 127.733 92.3912 127.54 92.3912 127.3V126.34C92.1379 126.913 91.7512 127.36 91.2312 127.68C90.7112 127.987 90.1112 128.14 89.4312 128.14C88.8046 128.14 88.2246 128.013 87.6912 127.76C87.1712 127.507 86.7579 127.153 86.4512 126.7C86.1446 126.247 85.9912 125.747 85.9912 125.2C85.9912 124.467 86.1779 123.9 86.5512 123.5C86.9246 123.087 87.5379 122.793 88.3912 122.62C89.2446 122.433 90.4312 122.34 91.9512 122.34H92.3912V121.68C92.3912 120.88 92.2246 120.293 91.8912 119.92C91.5712 119.547 91.0446 119.36 90.3112 119.36C89.4046 119.36 88.4846 119.607 87.5512 120.1C87.1912 120.327 86.9379 120.44 86.7912 120.44C86.6312 120.44 86.4979 120.38 86.3912 120.26C86.2846 120.14 86.2312 119.987 86.2312 119.8C86.2312 119.613 86.2846 119.453 86.3912 119.32C86.5112 119.173 86.6979 119.027 86.9512 118.88C87.4179 118.613 87.9446 118.407 88.5312 118.26C89.1312 118.1 89.7246 118.02 90.3112 118.02ZM89.6512 126.86C90.4512 126.86 91.1046 126.593 91.6112 126.06C92.1312 125.513 92.3912 124.813 92.3912 123.96V123.38H92.0312C90.8579 123.38 89.9646 123.433 89.3512 123.54C88.7379 123.633 88.2979 123.8 88.0312 124.04C87.7779 124.267 87.6512 124.607 87.6512 125.06C87.6512 125.58 87.8379 126.013 88.2112 126.36C88.5979 126.693 89.0779 126.86 89.6512 126.86ZM102.637 118.02C103.49 118.02 104.243 118.227 104.897 118.64C105.55 119.053 106.057 119.64 106.417 120.4C106.777 121.16 106.957 122.04 106.957 123.04C106.957 124.053 106.777 124.947 106.417 125.72C106.057 126.48 105.55 127.073 104.897 127.5C104.243 127.927 103.49 128.14 102.637 128.14C101.877 128.14 101.21 127.973 100.637 127.64C100.077 127.307 99.6501 126.833 99.3567 126.22V127.3C99.3567 127.54 99.2834 127.733 99.1367 127.88C99.0034 128.027 98.8101 128.1 98.5567 128.1C98.3034 128.1 98.1034 128.027 97.9567 127.88C97.8101 127.733 97.7367 127.54 97.7367 127.3V114.58C97.7367 114.353 97.8101 114.167 97.9567 114.02C98.1034 113.873 98.3034 113.8 98.5567 113.8C98.8101 113.8 99.0034 113.873 99.1367 114.02C99.2834 114.153 99.3567 114.34 99.3567 114.58V119.94C99.6501 119.327 100.077 118.853 100.637 118.52C101.21 118.187 101.877 118.02 102.637 118.02ZM102.317 126.8C103.263 126.8 103.997 126.473 104.517 125.82C105.037 125.153 105.297 124.227 105.297 123.04C105.297 121.88 105.037 120.98 104.517 120.34C103.997 119.7 103.263 119.38 102.317 119.38C101.37 119.38 100.637 119.7 100.117 120.34C99.6101 120.98 99.3567 121.893 99.3567 123.08C99.3567 124.267 99.6101 125.187 100.117 125.84C100.637 126.48 101.37 126.8 102.317 126.8ZM110.997 128.1C110.757 128.1 110.557 128.033 110.397 127.9C110.251 127.753 110.177 127.553 110.177 127.3V114.6C110.177 114.347 110.251 114.153 110.397 114.02C110.557 113.873 110.757 113.8 110.997 113.8C111.224 113.8 111.411 113.873 111.557 114.02C111.717 114.153 111.797 114.347 111.797 114.6V127.3C111.797 127.553 111.717 127.753 111.557 127.9C111.411 128.033 111.224 128.1 110.997 128.1ZM123.166 125.74C123.312 125.74 123.439 125.8 123.546 125.92C123.652 126.04 123.706 126.193 123.706 126.38C123.706 126.713 123.472 127.02 123.006 127.3C122.526 127.58 122.019 127.793 121.486 127.94C120.952 128.073 120.432 128.14 119.926 128.14C118.419 128.14 117.226 127.693 116.346 126.8C115.479 125.907 115.046 124.673 115.046 123.1C115.046 122.1 115.239 121.22 115.626 120.46C116.012 119.687 116.552 119.087 117.246 118.66C117.952 118.233 118.752 118.02 119.646 118.02C120.912 118.02 121.919 118.433 122.666 119.26C123.412 120.087 123.786 121.207 123.786 122.62C123.786 122.887 123.732 123.08 123.626 123.2C123.519 123.32 123.346 123.38 123.106 123.38H116.666C116.786 125.673 117.872 126.82 119.926 126.82C120.446 126.82 120.892 126.753 121.266 126.62C121.639 126.473 122.039 126.28 122.466 126.04C122.812 125.84 123.046 125.74 123.166 125.74ZM119.666 119.28C118.812 119.28 118.126 119.547 117.606 120.08C117.099 120.613 116.799 121.367 116.706 122.34H122.366C122.339 121.353 122.092 120.6 121.626 120.08C121.159 119.547 120.506 119.28 119.666 119.28Z" fill="white"/>
<path d="M43 71.4961V76.5C43 80.6367 53.0781 84 65.5 84C77.9219 84 88 80.6367 88 76.5V71.4961C83.1602 74.9062 74.3125 76.5 65.5 76.5C56.6875 76.5 47.8398 74.9062 43 71.4961ZM80.5 39C92.9219 39 103 35.6367 103 31.5C103 27.3633 92.9219 24 80.5 24C68.0781 24 58 27.3633 58 31.5C58 35.6367 68.0781 39 80.5 39ZM43 59.2031V65.25C43 69.3867 53.0781 72.75 65.5 72.75C77.9219 72.75 88 69.3867 88 65.25V59.2031C83.1602 63.1875 74.3008 65.25 65.5 65.25C56.6992 65.25 47.8398 63.1875 43 59.2031ZM91.75 60.4922C98.4648 59.1914 103 56.7773 103 54V48.9961C100.281 50.918 96.2852 52.2305 91.75 53.0391V60.4922ZM65.5 42.75C53.0781 42.75 43 46.9453 43 52.125C43 57.3047 53.0781 61.5 65.5 61.5C77.9219 61.5 88 57.3047 88 52.125C88 46.9453 77.9219 42.75 65.5 42.75ZM91.1992 49.3477C98.2305 48.082 103 45.5977 103 42.75V37.7461C98.8398 40.6875 91.6914 42.2695 84.168 42.6445C87.625 44.3203 90.168 46.5703 91.1992 49.3477Z" fill="#FFB800"/>
</svg>
