<svg width="60" height="62" viewBox="0 0 60 62" fill="none" xmlns="http://www.w3.org/2000/svg">
<path d="M59 31C59 47.5997 45.9856 61 30 61C14.0144 61 1 47.5997 1 31C1 14.4003 14.0144 1 30 1C45.9856 1 59 14.4003 59 31Z" stroke="white" stroke-width="2"/>
<path d="M38.6894 33L39.7265 27.2087H33.2419V23.4506C33.2419 21.8663 34.1478 20.3219 37.052 20.3219H40V15.3913C40 15.3913 37.3248 15 34.767 15C29.4267 15 25.9361 17.7738 25.9361 22.795V27.2087H20V33H25.9361V47H33.2419V33H38.6894Z" fill="#FFB800"/>
</svg>
