<svg width="60" height="60" viewBox="0 0 60 60" fill="none" xmlns="http://www.w3.org/2000/svg">
<circle cx="30" cy="30" r="29" stroke="white" stroke-width="2"/>
<path d="M29.503 22.0648C25.6721 22.0648 22.5821 25.3844 22.5821 29.5C22.5821 33.6156 25.6721 36.9352 29.503 36.9352C33.3339 36.9352 36.4239 33.6156 36.4239 29.5C36.4239 25.3844 33.3339 22.0648 29.503 22.0648ZM29.503 34.3339C27.0274 34.3339 25.0035 32.1661 25.0035 29.5C25.0035 26.8339 27.0214 24.6661 29.503 24.6661C31.9847 24.6661 34.0025 26.8339 34.0025 29.5C34.0025 32.1661 31.9786 34.3339 29.503 34.3339ZM38.3213 21.7606C38.3213 22.7248 37.5985 23.4949 36.707 23.4949C35.8095 23.4949 35.0928 22.7183 35.0928 21.7606C35.0928 20.8029 35.8156 20.0264 36.707 20.0264C37.5985 20.0264 38.3213 20.8029 38.3213 21.7606ZM42.9051 23.5208C42.8027 21.1976 42.3088 19.1399 40.7247 17.4444C39.1465 15.749 37.2311 15.2184 35.0687 15.1019C32.84 14.966 26.16 14.966 23.9313 15.1019C21.775 15.2119 19.8595 15.7426 18.2753 17.438C16.6912 19.1334 16.2033 21.1912 16.0949 23.5143C15.9684 25.9086 15.9684 33.085 16.0949 35.4792C16.1973 37.8024 16.6912 39.8601 18.2753 41.5556C19.8595 43.251 21.7689 43.7816 23.9313 43.8981C26.16 44.034 32.84 44.034 35.0687 43.8981C37.2311 43.7881 39.1465 43.2574 40.7247 41.5556C42.3028 39.8601 42.7967 37.8024 42.9051 35.4792C43.0316 33.085 43.0316 25.915 42.9051 23.5208ZM40.0259 38.0483C39.5561 39.3166 38.6466 40.2937 37.46 40.8049C35.683 41.562 31.4666 41.3873 29.503 41.3873C27.5394 41.3873 23.317 41.5556 21.5461 40.8049C20.3655 40.3002 19.4559 39.323 18.9801 38.0483C18.2753 36.1393 18.438 31.6096 18.438 29.5C18.438 27.3904 18.2814 22.8542 18.9801 20.9517C19.4499 19.6834 20.3595 18.7063 21.5461 18.1951C23.323 17.438 27.5394 17.6127 29.503 17.6127C31.4666 17.6127 35.6891 17.4444 37.46 18.1951C38.6405 18.6998 39.5501 19.6769 40.0259 20.9517C40.7307 22.8607 40.568 27.3904 40.568 29.5C40.568 31.6096 40.7307 36.1458 40.0259 38.0483Z" fill="#FFB800"/>
</svg>
