<svg width="60" height="60" viewBox="0 0 60 60" fill="none" xmlns="http://www.w3.org/2000/svg">
<circle cx="30" cy="30" r="29" stroke="white" stroke-width="2"/>
<path d="M29.503 22.9019C25.6721 22.9019 22.5821 26.2221 22.5821 30.3384C22.5821 34.4547 25.6721 37.7749 29.503 37.7749C33.3339 37.7749 36.4239 34.4547 36.4239 30.3384C36.4239 26.2221 33.3339 22.9019 29.503 22.9019ZM29.503 35.1731C27.0274 35.1731 25.0035 33.0049 25.0035 30.3384C25.0035 27.6719 27.0214 25.5037 29.503 25.5037C31.9847 25.5037 34.0025 27.6719 34.0025 30.3384C34.0025 33.0049 31.9786 35.1731 29.503 35.1731ZM38.3213 22.5977C38.3213 23.5621 37.5985 24.3322 36.707 24.3322C35.8095 24.3322 35.0928 23.5556 35.0928 22.5977C35.0928 21.6398 35.8156 20.8632 36.707 20.8632C37.5985 20.8632 38.3213 21.6398 38.3213 22.5977ZM42.9051 24.3581C42.8027 22.0346 42.3088 19.9765 40.7247 18.2808C39.1465 16.5851 37.2311 16.0544 35.0687 15.9379C32.84 15.802 26.16 15.802 23.9313 15.9379C21.775 16.0479 19.8595 16.5786 18.2753 18.2743C16.6912 19.97 16.2033 22.0282 16.0949 24.3517C15.9684 26.7463 15.9684 33.9239 16.0949 36.3186C16.1973 38.6421 16.6912 40.7003 18.2753 42.396C19.8595 44.0917 21.7689 44.6224 23.9313 44.7389C26.16 44.8748 32.84 44.8748 35.0687 44.7389C37.2311 44.6289 39.1465 44.0981 40.7247 42.396C42.3028 40.7003 42.7967 38.6421 42.9051 36.3186C43.0316 33.9239 43.0316 26.7528 42.9051 24.3581ZM40.0259 38.8881C39.5561 40.1566 38.6466 41.1339 37.46 41.6452C35.683 42.4024 31.4666 42.2277 29.503 42.2277C27.5394 42.2277 23.317 42.396 21.5461 41.6452C20.3655 41.1404 19.4559 40.1631 18.9801 38.8881C18.2753 36.9788 18.438 32.4483 18.438 30.3384C18.438 28.2285 18.2814 23.6915 18.9801 21.7887C19.4499 20.5201 20.3595 19.5429 21.5461 19.0316C23.323 18.2743 27.5394 18.4491 29.503 18.4491C31.4666 18.4491 35.6891 18.2808 37.46 19.0316C38.6405 19.5364 39.5501 20.5137 40.0259 21.7887C40.7307 23.698 40.568 28.2285 40.568 30.3384C40.568 32.4483 40.7307 36.9853 40.0259 38.8881Z" fill="black"/>
</svg>
