<svg width="60" height="60" viewBox="0 0 60 60" fill="none" xmlns="http://www.w3.org/2000/svg">
<circle cx="30" cy="30" r="29" stroke="white" stroke-width="2"/>
<path d="M41.1219 23.8155C41.1397 24.1218 41.1397 24.4282 41.1397 24.7345C41.1397 34.077 35.3656 44.8418 24.8122 44.8418C21.5609 44.8418 18.5406 43.6821 16 41.6693C16.4619 41.7349 16.9061 41.7568 17.3858 41.7568C20.0685 41.7568 22.5381 40.641 24.5102 38.7374C21.9873 38.6718 19.8731 36.637 19.1447 33.8364C19.5 33.902 19.8553 33.9457 20.2285 33.9457C20.7437 33.9457 21.2589 33.8582 21.7386 33.7051C19.1092 33.0487 17.137 30.2043 17.137 26.7693V26.6818C17.9009 27.2069 18.7893 27.5351 19.7309 27.5788C18.1852 26.3097 17.1726 24.1437 17.1726 21.6932C17.1726 20.3804 17.4568 19.177 17.9543 18.1268C20.7792 22.4152 25.0254 25.2157 29.7868 25.5221C29.698 24.997 29.6446 24.4501 29.6446 23.9031C29.6446 20.0084 32.203 16.8359 35.3832 16.8359C37.0355 16.8359 38.5279 17.6892 39.5761 19.0677C40.8731 18.7614 42.1167 18.1706 43.2183 17.3611C42.7918 19.0021 41.8858 20.3805 40.6954 21.2556C41.8503 21.1025 42.9696 20.7086 44 20.1617C43.2184 21.5619 42.2412 22.809 41.1219 23.8155Z" fill="#010101"/>
</svg>
