<svg width="60" height="60" viewBox="0 0 60 60" fill="none" xmlns="http://www.w3.org/2000/svg">
<circle cx="30" cy="30" r="29" stroke="white" stroke-width="2"/>
<path d="M41.1219 22.9781C41.1397 23.2843 41.1397 23.5906 41.1397 23.8969C41.1397 33.2375 35.3656 44 24.8122 44C21.5609 44 18.5406 42.8406 16 40.8282C16.4619 40.8937 16.9061 40.9156 17.3858 40.9156C20.0685 40.9156 22.5381 39.8 24.5102 37.8969C21.9873 37.8313 19.8731 35.7969 19.1447 32.9969C19.5 33.0625 19.8553 33.1062 20.2285 33.1062C20.7437 33.1062 21.2589 33.0187 21.7386 32.8656C19.1092 32.2093 17.137 29.3656 17.137 25.9312V25.8438C17.9009 26.3688 18.7893 26.6969 19.7309 26.7406C18.1852 25.4718 17.1726 23.3062 17.1726 20.8562C17.1726 19.5437 17.4568 18.3406 17.9543 17.2906C20.7792 21.5781 25.0254 24.378 29.7868 24.6843C29.698 24.1593 29.6446 23.6125 29.6446 23.0656C29.6446 19.1718 32.203 16 35.3832 16C37.0355 16 38.5279 16.8531 39.5761 18.2312C40.8731 17.925 42.1167 17.3344 43.2183 16.525C42.7918 18.1657 41.8858 19.5438 40.6954 20.4187C41.8503 20.2657 42.9696 19.8718 44 19.325C43.2184 20.725 42.2412 21.9718 41.1219 22.9781Z" fill="#FFB800"/>
</svg>
